# xmcd
#
# Track frame offsets: 
#        150
#        33153
#        59479
#        77532
#        102718
#        134497
#        173058
#        196369
#        209238
#        213084
#        216620
#        224491
#        239624
#        256831
#
# Disc length: 3861 seconds
#
# Revision: 0
# Processed by: cddbd v1.5.2PL0 Copyright (c) Steve Scherf et al.
# Submitted via: ExactAudioCopy v0.95b3
#
DISCID=e20f130e
DTITLE=Chicago  - Toronto - Disc 1
DYEAR=1900
DGENRE=
TTITLE0=Dialogue
TTITLE1=Now that you've gone
TTITLE2=Lowdown
TTITLE3=Hit by Varese
TTITLE4=Beginnings
TTITLE5=State of the Union
TTITLE6=Saturday in the Park
TTITLE7=Ballet:  Make Me Smile
TTITLE8=So Much To Say, So Much To Give
TTITLE9=Anxiety's Moment
TTITLE10=West Virginia Fantasies
TTITLE11=Colour My World
TTITLE12=To Be Free\\Now MoreThan Ever
TTITLE13=Introduction
EXTD=
EXTT0=
EXTT1=
EXTT2=
EXTT3=
EXTT4=
EXTT5=
EXTT6=
EXTT7=
EXTT8=
EXTT9=
EXTT10=
EXTT11=
EXTT12=
EXTT13=
PLAYORDER=
